<svg xmlns="http://www.w3.org/2000/svg" version="1.1" width="3300" height="2000"><g id="Notes"><style>
    text {
      font-family: monospace;
      text-anchor: middle;
    }
    text.emphasis {
      font-weight:bold;
    }
    text.lanchor {
      text-anchor: start;
    }
  </style><rect height="2200" id="artboard" fill="white" width="3300" x="0" y="0"/><line id="" style="fill:none;stroke:black;stroke-width:0.5;" x1="263" x2="3036" y1="292" y2="292"/><text class="lanchor emphasis" transform="matrix(1 0 0 1 263 322)">Weight/Scale Variations</text><text transform="matrix(1 0 0 1 559.711 322)">Ultralight</text><text transform="matrix(1 0 0 1 856.422 322)">Thin</text><text transform="matrix(1 0 0 1 1153.13 322)">Light</text><text transform="matrix(1 0 0 1 1449.84 322)">Regular</text><text transform="matrix(1 0 0 1 1746.56 322)">Medium</text><text transform="matrix(1 0 0 1 2043.27 322)">Semibold</text><text transform="matrix(1 0 0 1 2339.98 322)">Bold</text><text transform="matrix(1 0 0 1 2636.69 322)">Heavy</text><text transform="matrix(1 0 0 1 2933.4 322)">Black</text><text id="template-version" style="text-anchor: end;" transform="matrix(1 0 0 1 3036 1933)">Template v.1.0</text><text class="lanchor" transform="matrix(1 0 0 1 263 726)">Small</text><text class="lanchor" transform="matrix(1 0 0 1 263 1156)">Medium</text><text class="lanchor" transform="matrix(1 0 0 1 263 1586)">Large</text></g><g id="Guides"><g id="H-reference" style="fill:#27AAE1;stroke:none;" transform="matrix(1 0 0 1 339 696)"><path d="M 54.9316 0 L 57.666 0 L 30.5664 -70.459 L 28.0762 -70.459 L 0.976562 0 L 3.66211 0 L 12.9395 -24.4629 L 45.7031 -24.4629 Z M 29.1992 -67.0898 L 29.4434 -67.0898 L 44.8242 -26.709 L 13.8184 -26.709 Z"/></g><line id="Baseline-S" style="fill:none;stroke:#27AAE1;opacity:1;stroke-width:0.577;" x1="263" x2="3036" y1="696" y2="696"/><line id="Capline-S" style="fill:none;stroke:#27AAE1;opacity:1;stroke-width:0.577;" x1="263" x2="3036" y1="625.541" y2="625.541"/><g id="H-reference" style="fill:#27AAE1;stroke:none;" transform="matrix(1 0 0 1 339 1126)"><path d="M 54.9316 0 L 57.666 0 L 30.5664 -70.459 L 28.0762 -70.459 L 0.976562 0 L 3.66211 0 L 12.9395 -24.4629 L 45.7031 -24.4629 Z M 29.1992 -67.0898 L 29.4434 -67.0898 L 44.8242 -26.709 L 13.8184 -26.709 Z"/></g><line id="Baseline-M" style="fill:none;stroke:#27AAE1;opacity:1;stroke-width:0.577;" x1="263" x2="3036" y1="1126" y2="1126"/><line id="Capline-M" style="fill:none;stroke:#27AAE1;opacity:1;stroke-width:0.577;" x1="263" x2="3036" y1="1055.54" y2="1055.54"/><g id="H-reference" style="fill:#27AAE1;stroke:none;" transform="matrix(1 0 0 1 339 1556)"><path d="M 54.9316 0 L 57.666 0 L 30.5664 -70.459 L 28.0762 -70.459 L 0.976562 0 L 3.66211 0 L 12.9395 -24.4629 L 45.7031 -24.4629 Z M 29.1992 -67.0898 L 29.4434 -67.0898 L 44.8242 -26.709 L 13.8184 -26.709 Z"/></g><line id="Baseline-L" style="fill:none;stroke:#27AAE1;opacity:1;stroke-width:0.577;" x1="263" x2="3036" y1="1556" y2="1556"/><line id="Capline-L" style="fill:none;stroke:#27AAE1;opacity:1;stroke-width:0.577;" x1="263" x2="3036" y1="1485.54" y2="1485.54"/><rect height="119.336" id="left-margin" style="fill:darkred;stroke:none;opacity:0.4;" width="12.4512" x="1394.06" y="1030.79"/><rect height="119.336" id="right-margin" style="fill:darkgreen;stroke:none;opacity:0.4;" width="12.4512" x="1502.5112" y="1030.79"/><rect x="1406.5112" y="1045" width="96" height="96" fill="none" stroke="blue" stroke-dasharray="5"/><rect x="1394.06" y="1030.79" width="120.9024" height="119.336" fill="none" stroke="blue"/></g><g id="Symbols"><g id="Bold-L" transform="matrix(1 0 0 1 2266 1556)"><path d="M28.86375 26.85125000000002 Q22.500502500000003 26.85125000000002 18.022751250000002 22.42090625 Q13.545 17.99056250000001 13.545 11.693750000000023 V-82.15374999999997 Q13.545 -88.51715875 18.022751250000002 -92.99474874999999 Q22.500502500000003 -97.47249999999998 28.86375 -97.47249999999998 H76.91625 V-82.15374999999997 H28.86375 Q28.86375 -82.15374999999997 28.86375 -82.15374999999997 Q28.86375 -82.15374999999997 28.86375 -82.15374999999997 V11.693750000000023 Q28.86375 11.693750000000023 28.86375 11.693750000000023 Q28.86375 11.693750000000023 28.86375 11.693750000000023 H76.91625 V26.85125000000002 H28.86375 Z M107.55375000000001 -1.206249999999983  96.58875 -11.848749999999981  112.39125 -27.651249999999976 H58.3725 V-42.80874999999999 H112.06875000000001 L96.26625 -58.611249999999984 L107.23125 -69.25374999999998 L141.255 -35.06874999999998 L107.55375000000001 -1.206249999999983 Z"/></g><g id="Semibold-L" transform="matrix(1 0 0 1 1970.27 1556)"><path d="M28.933893750000003 25.09862375 Q23.65456875 25.09862375 19.86164625 21.332468750000004 Q16.06872375 17.566475000000025 16.06872375 12.32472125000001 V-82.78472124999999 Q16.06872375 -88.06404624999999 19.86164625 -91.85696875 Q23.65456875 -95.64972999999998 28.933893750000003 -95.64972999999998 H76.49554875000001 V-82.78472124999999 H28.933893750000003 Q28.933893750000003 -82.78472124999999 28.933893750000003 -82.78472124999999 Q28.933893750000003 -82.78472124999999 28.933893750000003 -82.78472124999999 V12.32472125000001 Q28.933893750000003 12.32472125000001 28.933893750000003 12.32472125000001 Q28.933893750000003 12.32472125000001 28.933893750000003 12.32472125000001 H76.49554875000001 V25.09862375 H28.933893750000003 Z M107.48360625000001 -3.7299737499999708  98.2712325 -12.760134999999991  114.35414625 -28.84304874999998 H59.283885 V-41.616951249999985 H114.03164625000001 L97.94873249999999 -57.69986499999999 L107.16110625000002 -66.73002624999998 L138.73127625 -35.06874999999998 L107.48360625000001 -3.7299737499999708 Z"/></g><g id="Medium-L" transform="matrix(1 0 0 1 1674.31 1556)"><path d="M28.98646125 23.783952499999998 Q24.52015875 23.783952499999998 21.24097875 20.51622125 Q17.96179875 17.248328750000013 17.96179875 12.797989999999999 V-83.25798999999998 Q17.96179875 -87.72413124999999 21.24097875 -91.00331124999998 Q24.52015875 -94.28265249999998 28.98646125 -94.28265249999998 H76.18014375 V-83.25798999999998 H28.98646125 Q28.98646125 -83.25798999999998 28.98646125 -83.25798999999998 Q28.98646125 -83.25798999999998 28.98646125 -83.25798999999998 V12.797989999999999 Q28.98646125 12.797989999999999 28.98646125 12.797989999999999 Q28.98646125 12.797989999999999 28.98646125 12.797989999999999 H76.18014375 V23.783952499999998 H28.98646125 Z M107.43103875000001 -5.623048749999981  99.53333624999999 -13.443673749999974  115.82652 -29.737018749999976 H59.96742375 V-40.72298124999999 H115.50402 L99.21083625 -57.01632624999998 L107.10853875000001 -64.83695124999997 L136.83820125 -35.06874999999998 L107.43103875000001 -5.623048749999981 Z"/></g><g id="Regular-L" transform="matrix(1 0 0 1 1378.56 1556)"><path d="M29.025000000000002 22.82000000000002 Q25.155 22.82000000000002 22.2525 19.917500000000018 Q19.35 17.015000000000015 19.35 13.14500000000001 V-83.60499999999999 Q19.35 -87.475 22.2525 -90.37749999999998 Q25.155 -93.27999999999999 29.025000000000002 -93.27999999999999 H75.94875 V-83.60499999999999 H29.025000000000002 Q29.025000000000002 -83.60499999999999 29.025000000000002 -83.60499999999999 Q29.025000000000002 -83.60499999999999 29.025000000000002 -83.60499999999999 V13.14500000000001 Q29.025000000000002 13.14500000000001 29.025000000000002 13.14500000000001 Q29.025000000000002 13.14500000000001 29.025000000000002 13.14500000000001 H75.94875 V22.82000000000002 H29.025000000000002 Z M107.3925 -7.011249999999976  100.45875000000001 -13.944999999999979  116.90625 -30.392499999999984 H60.46875 V-40.06749999999998 H116.58375000000001 L100.13625 -56.514999999999986 L107.07000000000001 -63.44874999999999 L135.45000000000002 -35.06874999999998 L107.3925 -7.011249999999976 Z"/></g><g id="Light-L" transform="matrix(1 0 0 1 1082.77 1556)"><path d="M32.498325 22.82000000000002 Q28.70427375 22.82000000000002 25.9499625 20.06552750000003 Q23.195490000000003 17.31121625000003 23.195490000000003 13.517165000000006 V-80.75184249999998 Q23.195490000000003 -84.54589374999998 25.9499625 -87.30036624999998 Q28.70427375 -90.05483874999999 32.498325 -90.05483874999999 H77.065245 V-82.73666874999998 H32.498325 Q31.753995000000003 -82.73666874999998 31.133827500000002 -82.11650124999998 Q30.51349875 -81.49617249999999 30.51349875 -80.75184249999998 V13.517165000000006 Q30.51349875 14.261495000000025 31.133827500000002 14.881662500000004 Q31.753995000000003 15.501830000000012 32.498325 15.501830000000012 H77.065245 V22.82000000000002 H32.498325 Z M107.14433625000001 -9.057996249999974  101.82324750000001 -14.255083749999983  117.52641750000001 -29.958253749999983 H60.59275125 V-37.27642374999999 H117.32808 L101.62474875 -52.97959374999998 L106.88391750000001 -58.23876249999998 L131.60451 -33.48720999999999 L107.14433625000001 -9.057996249999974 Z"/></g><g id="Thin-L" transform="matrix(1 0 0 1 787.282 1556)"><path d="M35.97116625 22.82000000000002 Q32.25306375 22.82000000000002 29.64661875 20.213716250000004 Q27.040335000000002 17.607271250000025 27.040335000000002 13.88916875000001 V-77.89932999999999 Q27.040335000000002 -81.61727124999999 29.64661875 -84.22371624999998 Q32.25306375 -86.82999999999998 35.97116625 -86.82999999999998 H78.18141750000001 V-81.86849874999999 H35.97116625 Q34.4826675 -81.86849874999999 33.2423325 -80.62816374999998 Q32.001836250000004 -79.38766749999999 32.001836250000004 -77.89932999999999 V13.88916875000001 Q32.001836250000004 15.37766750000003 33.2423325 16.618002500000017 Q34.4826675 17.858498750000024 35.97116625 17.858498750000024 H78.18141750000001 V22.82000000000002 H35.97116625 Z M106.89633375 -11.10441999999999  103.18758375 -14.565167499999987  118.146585 -29.524168749999987 H60.716752500000005 V-34.485831249999976 H118.07224875 L103.11308625000001 -49.444832499999976 L106.697835 -53.02958124999998 L127.759665 -31.905831249999977 L106.89633375 -11.10441999999999 Z"/></g><g id="Ultralight-L" transform="matrix(1 0 0 1 491.205 1556)"><path d="M38.055 22.82000000000002 Q34.38253125 22.82000000000002 31.86509625 20.302565000000016 Q29.3475 17.78496875000002 29.3475 14.112500000000011 V-76.18749999999999 Q29.3475 -79.85996874999998 31.86509625 -82.37756499999998 Q34.38253125 -84.89499999999998 38.055 -84.89499999999998 H78.85125000000001 V-81.34749999999998 H38.055 Q36.120000000000005 -81.34749999999998 34.5075 -79.73499999999999 Q32.895 -78.12249999999997 32.895 -76.18749999999999 V14.112500000000011 Q32.895 16.047500000000014 34.5075 17.660000000000025 Q36.120000000000005 19.272500000000008 38.055 19.272500000000008 H78.85125000000001 V22.82000000000002 H38.055 Z M106.7475 -12.332499999999982  104.00625000000001 -14.751249999999985  118.51875 -29.263749999999987 H60.791250000000005 V-32.81124999999999 H118.51875 L104.00625000000001 -47.32374999999999 L106.58625 -49.90374999999999 L125.4525 -30.956874999999982 L106.7475 -12.332499999999982 Z"/></g><g id="Bold-M" transform="matrix(1 0 0 1 2281.8 1126)"><path d="M24.75 14.02000000000001 Q18.125 14.02000000000001 13.5625 9.45750000000001 Q9.0 4.89500000000001 9.0 -1.7299999999999898 V-68.72999999999999 Q9.0 -75.35499999999999 13.5625 -79.91749999999999 Q18.125 -84.47999999999999 24.75 -84.47999999999999 H61.0 V-68.72999999999999 H24.75 Q24.75 -68.72999999999999 24.75 -68.72999999999999 Q24.75 -68.72999999999999 24.75 -68.72999999999999 V-1.7299999999999898 Q24.75 -1.7299999999999898 24.75 -1.7299999999999898 Q24.75 -1.7299999999999898 24.75 -1.7299999999999898 H61.0 V14.02000000000001 H24.75 Z M80.125 -4.22999999999999  69.125 -15.35499999999999  81.125 -27.35499999999999 H42.75 V-43.10499999999999 H81.125 L69.125 -55.10499999999999 L80.125 -66.22999999999999 L111.0 -35.22999999999999 L80.125 -4.22999999999999 Z"/></g><g id="Semibold-M" transform="matrix(1 0 0 1 1985.97 1126)"><path d="M24.85875 12.172250000000005 Q19.320625 12.172250000000005 15.4645 8.31625000000001 Q11.6085 4.460250000000016 11.6085 -1.0778749999999917 V-69.38212499999999 Q11.6085 -74.92024999999998 15.4645 -78.77624999999999 Q19.320625 -82.63224999999998 24.85875 -82.63224999999998 H60.56525 V-69.38212499999999 H24.85875 Q24.85875 -69.38212499999999 24.85875 -69.38212499999999 Q24.85875 -69.38212499999999 24.85875 -69.38212499999999 V-1.0778749999999917 Q24.85875 -1.0778749999999917 24.85875 -1.0778749999999917 Q24.85875 -1.0778749999999917 24.85875 -1.0778749999999917 H60.56525 V12.172250000000005 H24.85875 Z M80.070625 -6.838499999999996  70.864 -16.278874999999985  83.190125 -28.604874999999993 H43.72825 V-41.85512499999999 H83.190125 L70.864 -54.18112499999999 L80.070625 -63.62149999999999 L108.3915 -35.22999999999999 L80.070625 -6.838499999999996 Z"/></g><g id="Medium-M" transform="matrix(1 0 0 1 1689.91 1126)"><path d="M24.94025 10.786375000000007 Q20.217375 10.786375000000007 16.89125 7.460250000000016 Q13.565125 4.134125000000012 13.565125 -0.5887499999999903 V-69.87124999999999 Q13.565125 -74.59412499999999 16.89125 -77.92024999999998 Q20.217375 -81.24637499999999 24.94025 -81.24637499999999 H60.239125 V-69.87124999999999 H24.94025 Q24.94025 -69.87124999999999 24.94025 -69.87124999999999 Q24.94025 -69.87124999999999 24.94025 -69.87124999999999 V-0.5887499999999903 Q24.94025 -0.5887499999999903 24.94025 -0.5887499999999903 Q24.94025 -0.5887499999999903 24.94025 -0.5887499999999903 H60.239125 V10.786375000000007 H24.94025 Z M80.029875 -8.795124999999985  72.1685 -16.971874999999983  84.739125 -29.54249999999999 H44.462 V-40.91749999999999 H84.739125 L72.1685 -53.48812499999999 L80.029875 -61.66487499999999 L106.434875 -35.22999999999999 L80.029875 -8.795124999999985 Z"/></g><g id="Regular-M" transform="matrix(1 0 0 1 1394.06 1126)"><path d="M25.0 9.77000000000001 Q20.875 9.77000000000001 17.9375 6.83250000000001 Q15.0 3.8950000000000102 15.0 -0.22999999999998977 V-70.22999999999999 Q15.0 -74.35499999999999 17.9375 -77.29249999999999 Q20.875 -80.22999999999999 25.0 -80.22999999999999 H60.0 V-70.22999999999999 H25.0 Q25.0 -70.22999999999999 25.0 -70.22999999999999 Q25.0 -70.22999999999999 25.0 -70.22999999999999 V-0.22999999999998977 Q25.0 -0.22999999999998977 25.0 -0.22999999999998977 Q25.0 -0.22999999999998977 25.0 -0.22999999999998977 H60.0 V9.77000000000001 H25.0 Z M80.0 -10.22999999999999  73.125 -17.47999999999999  85.875 -30.22999999999999 H45.0 V-40.22999999999999 H85.875 L73.125 -52.97999999999999 L80.0 -60.22999999999999 L105.0 -35.22999999999999 L80.0 -10.22999999999999 Z"/></g><g id="Light-M" transform="matrix(1 0 0 1 1098.18 1126)"><path d="M27.019375 9.77000000000001 Q23.231 9.77000000000001 20.606 7.14500000000001 Q17.981 4.52000000000001 17.981 0.7316250000000082 V-68.691375 Q17.981 -72.47987499999999 20.606 -75.10487499999999 Q23.231 -77.72987499999999 27.019375 -77.72987499999999 H60.577 V-70.22999999999999 H27.019375 Q26.442375 -70.22999999999999 25.961625 -69.74924999999999 Q25.48075 -69.26837499999999 25.48075 -68.691375 V0.7316250000000082 Q25.48075 1.3086250000000064 25.961625 1.7893750000000068 Q26.442375 2.2701250000000073 27.019375 2.2701250000000073 H60.577 V9.77000000000001 H27.019375 Z M80.673125 -12.633999999999986  75.481 -18.056999999999988  87.654 -30.22999999999999 H45.577 V-37.72987499999999 H87.654 L75.481 -49.90287499999999 L80.673125 -55.32574999999999 L102.019 -33.97987499999999 L80.673125 -12.633999999999986 Z"/></g><g id="Thin-M" transform="matrix(1 0 0 1 802.565 1126)"><path d="M29.038375 9.77000000000001 Q25.5865 9.77000000000001 23.274 7.45750000000001 Q20.9615 5.14500000000001 20.9615 1.693125000000009 V-67.15312499999999 Q20.9615 -70.60499999999999 23.274 -72.91749999999999 Q25.5865 -75.22999999999999 29.038375 -75.22999999999999 H61.153875 V-70.22999999999999 H29.038375 Q27.884625 -70.22999999999999 26.923125 -69.26849999999999 Q25.9615 -68.30687499999999 25.9615 -67.15312499999999 V1.693125000000009 Q25.9615 2.8468750000000114 26.923125 3.8083750000000123 Q27.884625 4.77000000000001 29.038375 4.77000000000001 H61.153875 V9.77000000000001 H29.038375 Z M81.346125 -15.037624999999991  77.8365 -18.63387499999999  89.432625 -30.22999999999999 H46.153875 V-35.22999999999999 H89.432625 L77.8365 -46.82624999999999 L81.346125 -50.42237499999999 L99.0385 -32.72999999999999 L81.346125 -15.037624999999991 Z"/></g><g id="Ultralight-M" transform="matrix(1 0 0 1 506.415 1126)"><path d="M30.25 9.77000000000001 Q27.0 9.77000000000001 24.875 7.64500000000001 Q22.75 5.52000000000001 22.75 2.2700000000000102 V-66.22999999999999 Q22.75 -69.47999999999999 24.875 -71.60499999999999 Q27.0 -73.72999999999999 30.25 -73.72999999999999 H61.5 V-70.22999999999999 H30.25 Q28.75 -70.22999999999999 27.5 -68.97999999999999 Q26.25 -67.72999999999999 26.25 -66.22999999999999 V2.2700000000000102 Q26.25 3.7700000000000102 27.5 5.02000000000001 Q28.75 6.27000000000001 30.25 6.27000000000001 H61.5 V9.77000000000001 H30.25 Z M81.75 -16.47999999999999  79.25 -18.97999999999999  90.5 -30.22999999999999 H46.5 V-33.72999999999999 H90.5 L79.25 -44.97999999999999 L81.75 -47.47999999999999 L97.25 -31.97999999999999 L81.75 -16.47999999999999 Z"/></g><g id="Bold-S" transform="matrix(1 0 0 1 2294.23 696)"><path d="M21.10575 1.261250000000004 Q16.204087500000004 1.261250000000004 12.836043750000002 -2.1067937499999942 Q9.468 -5.4748374999999925 9.468 -10.376499999999993 V-60.083499999999994 Q9.468 -64.9851625 12.836043750000002 -68.35320625 Q16.204087500000004 -71.72125 21.10575 -71.72125 H48.129000000000005 V-60.083499999999994 H21.10575 Q21.10575 -60.083499999999994 21.10575 -60.083499999999994 Q21.10575 -60.083499999999994 21.10575 -60.083499999999994 V-10.376499999999993 Q21.10575 -10.376499999999993 21.10575 -10.376499999999993 Q21.10575 -10.376499999999993 21.10575 -10.376499999999993 H48.129000000000005 V1.261250000000004 H21.10575 Z M64.007625 -13.926999999999992  55.723125 -22.01424999999999  63.120000000000005 -29.41112499999999 H36.09675 V-41.048874999999995 H63.120000000000005 L55.723125 -48.44575 L64.007625 -56.532999999999994 L85.212 -35.23 L64.007625 -13.926999999999992 Z"/></g><g id="Semibold-S" transform="matrix(1 0 0 1 1998.1 696)"><path d="M21.19155375 -0.19662474999999802 Q17.147435625 -0.19662474999999802 14.336721750000002 -3.007239999999996 Q11.5261065 -5.817855249999994 11.5261065 -9.861973374999991 V-60.59802662499999 Q11.5261065 -64.64214475 14.336721750000002 -67.45276 Q17.147435625 -70.26337525 21.19155375 -70.26337525 H47.78598225 V-60.59802662499999 H21.19155375 Q21.19155375 -60.59802662499999 21.19155375 -60.59802662499999 Q21.19155375 -60.59802662499999 21.19155375 -60.59802662499999 V-9.861973374999991 Q21.19155375 -9.861973374999991 21.19155375 -9.861973374999991 Q21.19155375 -9.861973374999991 21.19155375 -9.861973374999991 H47.78598225 V-0.19662474999999802 H21.19155375 Z M63.964723125000006 -15.9851065  57.09519600000001 -22.74318737499999  64.749383625 -30.397276374999997 H36.86858925000001 V-40.06272362499999 H64.749383625 L57.09519600000001 -47.716812624999996 L63.964723125000006 -54.47489349999999 L83.1538935 -35.23 L63.964723125000006 -15.9851065 Z"/></g><g id="Medium-S" transform="matrix(1 0 0 1 1701.85 696)"><path d="M21.255857250000002 -1.2900801249999887 Q17.854971374999998 -1.2900801249999887 15.4624275 -3.682624000000004 Q13.069883625 -6.075167874999991 13.069883625 -9.476053749999991 V-60.983946249999995 Q13.069883625 -64.384832125 15.4624275 -66.777376 Q17.854971374999998 -69.16991987499999 21.255857250000002 -69.16991987499999 H47.528669625000006 V-60.983946249999995 H21.255857250000002 Q21.255857250000002 -60.983946249999995 21.255857250000002 -60.983946249999995 Q21.255857250000002 -60.983946249999995 21.255857250000002 -60.983946249999995 V-9.476053749999991 Q21.255857250000002 -9.476053749999991 21.255857250000002 -9.476053749999991 Q21.255857250000002 -9.476053749999991 21.255857250000002 -9.476053749999991 H47.528669625000006 V-1.2900801249999887 H21.255857250000002 Z M63.93257137500001 -17.52888362499999  58.1244465 -23.289964374999983  65.971544625 -31.137062499999992 H37.447518 V-39.322937499999995 H65.971544625 L58.1244465 -47.170035625 L63.93257137500001 -52.931116374999995 L81.610116375 -35.23 L63.93257137500001 -17.52888362499999 Z"/></g><g id="Regular-S" transform="matrix(1 0 0 1 1405.73 696)"><path d="M21.303 -2.0919999999999987 Q18.3738375 -2.0919999999999987 16.287918750000003 -4.177918749999989 Q14.202 -6.263837499999994 14.202 -9.192999999999998 V-61.266999999999996 Q14.202 -64.19616249999999 16.287918750000003 -66.28208125 Q18.3738375 -68.368 21.303 -68.368 H47.34 V-61.266999999999996 H21.303 Q21.303 -61.266999999999996 21.303 -61.266999999999996 Q21.303 -61.266999999999996 21.303 -61.266999999999996 V-9.192999999999998 Q21.303 -9.192999999999998 21.303 -9.192999999999998 Q21.303 -9.192999999999998 21.303 -9.192999999999998 H47.34 V-2.0919999999999987 H21.303 Z M63.909000000000006 -18.660999999999987  58.879125 -23.69087499999999  66.86775 -31.679499999999997 H37.872 V-38.780499999999996 H66.86775 L58.879125 -46.769124999999995 L63.909000000000006 -51.79899999999999 L80.47800000000001 -35.23 L63.909000000000006 -18.660999999999987 Z"/></g><g id="Light-S" transform="matrix(1 0 0 1 1109.75 696)"><path d="M22.896286875 -2.0919999999999987 Q20.2327215 -2.0919999999999987 18.39336525 -3.9313562499999932 Q16.554009 -5.770712499999988 16.554009 -8.434277874999992 V-60.05302487499999 Q16.554009 -62.716688874999996 18.39336525 -64.556045125 Q20.2327215 -66.395401375 22.896286875 -66.395401375 H47.795253 V-61.266999999999996 H22.896286875 Q22.441033875 -61.266999999999996 22.061722125000003 -60.88768825 Q21.68231175 -60.508277875 21.68231175 -60.05302487499999 V-8.434277874999992 Q21.68231175 -7.979024874999993 22.061722125000003 -7.599713124999994 Q22.441033875 -7.2204013749999945 22.896286875 -7.2204013749999945 H47.795253 V-2.0919999999999987 H22.896286875 Z M64.440095625 -20.557755999999998  60.738009 -24.14612799999999  68.271381 -31.679499999999997 H38.327253 V-36.807901375 H68.271381 L60.738009 -44.34127337499999 L64.440095625 -47.92954675 L78.12599100000001 -34.243651375 L64.440095625 -20.557755999999998 Z"/></g><g id="Thin-S" transform="matrix(1 0 0 1 814.015 696)"><path d="M24.489277875 -2.0919999999999987 Q22.091211 -2.0919999999999987 20.498417250000003 -3.684793749999997 Q18.9056235 -5.2775874999999814 18.9056235 -7.6756543749999935 V-58.83934562499999 Q18.9056235 -61.23741249999999 20.498417250000003 -62.830206249999996 Q22.091211 -64.423 24.489277875 -64.423 H48.250407375 V-61.266999999999996 H24.489277875 Q23.578969125 -61.266999999999996 22.820345625 -60.5083765 Q22.061623500000003 -59.749654375 22.061623500000003 -58.83934562499999 V-7.6756543749999935 Q22.061623500000003 -6.765345624999995 22.820345625 -6.006722124999996 Q23.578969125 -5.2479999999999905 24.489277875 -5.2479999999999905 H48.250407375 V-2.0919999999999987 H24.489277875 Z M64.971092625 -22.454216124999988  62.5964985 -24.601282374999997  69.674716125 -31.679499999999997 H38.782407375 V-34.835499999999996 H69.674716125 L62.5964985 -41.91381624999999 L64.971092625 -44.06078387499999 L75.7743765 -33.25749999999999 L64.971092625 -22.454216124999988 Z"/></g><g id="Ultralight-S" transform="matrix(1 0 0 1 517.792 696)"><path d="M25.44525 -2.0919999999999987 Q23.2064625 -2.0919999999999987 21.76160625 -3.5368562499999854 Q20.316750000000003 -4.981712499999986 20.316750000000003 -7.220499999999987 V-58.111 Q20.316750000000003 -60.34978749999999 21.76160625 -61.79464375 Q23.2064625 -63.23949999999999 25.44525 -63.23949999999999 H48.523500000000006 V-61.266999999999996 H25.44525 Q24.261750000000003 -61.266999999999996 23.2755 -60.28075 Q22.289250000000003 -59.29449999999999 22.289250000000003 -58.111 V-7.220499999999987 Q22.289250000000003 -6.036999999999992 23.2755 -5.050749999999994 Q24.261750000000003 -4.064499999999995 25.44525 -4.064499999999995 H48.523500000000006 V-2.0919999999999987 H25.44525 Z M65.28975 -23.592249999999993  63.71175 -24.874375  70.516875 -31.679499999999997 H39.0555 V-33.651999999999994 H70.516875 L63.71175 -40.457125 L65.28975 -41.73924999999999 L74.36325000000001 -32.665749999999996 L65.28975 -23.592249999999993 Z"/></g></g></svg>